<?xml version="1.0" encoding="iso-8859-1"?>
<!-- Generator: Adobe Illustrator 19.0.0, SVG Export Plug-In . SVG Version: 6.00 Build 0)  -->
<svg version="1.1" id="Capa_1" xmlns="http://www.w3.org/2000/svg" xmlns:xlink="http://www.w3.org/1999/xlink" x="0px" y="0px"
	 viewBox="0 0 512 512" style="enable-background:new 0 0 512 512;" xml:space="preserve">
<path style="fill:#2EA2EF;" d="M481.095,0L256,256l225.095,256h18.414c6.899,0,12.491-5.593,12.491-12.491V12.491
	C512,5.593,506.407,0,499.509,0H481.095z"/>
<path style="fill:#54BBFF;" d="M0,12.491v487.018C0,506.407,5.593,512,12.491,512h468.604V0H12.491C5.593,0,0,5.593,0,12.491z"/>
<polygon style="fill:#C6E8FF;" points="450.189,30.905 256,256 450.189,481.095 481.095,481.095 481.095,30.905 "/>
<rect x="30.905" y="30.905" style="fill:#DEF1FF;" width="419.284" height="450.189"/>
<path style="fill:#2EA2EF;" d="M306.994,395.59H205.006c-7.394,0-14.221-3.962-17.889-10.381
	c-3.668-6.419-3.616-14.312,0.138-20.682l94.944-161.123c2.743-4.653,4.192-9.975,4.192-15.394c0-16.757-13.633-30.39-30.39-30.39
	s-30.39,13.632-30.39,30.389c0,11.379-9.224,20.604-20.604,20.604c-11.379,0-20.604-9.224-20.604-20.604
	c0-39.479,32.119-71.598,71.598-71.598s71.598,32.119,71.598,71.598c0,12.774-3.423,25.332-9.899,36.317l-76.637,130.057h65.933
	c11.379,0,20.604,9.224,20.604,20.604S318.373,395.59,306.994,395.59z"/>
<g>
</g>
<g>
</g>
<g>
</g>
<g>
</g>
<g>
</g>
<g>
</g>
<g>
</g>
<g>
</g>
<g>
</g>
<g>
</g>
<g>
</g>
<g>
</g>
<g>
</g>
<g>
</g>
<g>
</g>
</svg>
