<?xml version="1.0" encoding="iso-8859-1"?>
<!-- Generator: Adobe Illustrator 19.0.0, SVG Export Plug-In . SVG Version: 6.00 Build 0)  -->
<svg version="1.1" id="Capa_1" xmlns="http://www.w3.org/2000/svg" xmlns:xlink="http://www.w3.org/1999/xlink" x="0px" y="0px"
	 viewBox="0 0 512 512" style="enable-background:new 0 0 512 512;" xml:space="preserve">
<path style="fill:#2EA2EF;" d="M481.095,0L256,256l225.095,256h18.414c6.899,0,12.491-5.593,12.491-12.491V12.491
	C512,5.593,506.407,0,499.509,0H481.095z"/>
<path style="fill:#54BBFF;" d="M0,12.491v487.018C0,506.407,5.593,512,12.491,512h468.604V0H12.491C5.593,0,0,5.593,0,12.491z"/>
<polygon style="fill:#C6E8FF;" points="450.189,30.905 256,256 450.189,481.095 481.095,481.095 481.095,30.905 "/>
<rect x="30.905" y="30.905" style="fill:#DEF1FF;" width="419.284" height="450.189"/>
<path style="fill:#2EA2EF;" d="M256,116.41c39.479,0,71.598,32.119,71.598,71.598c0,11.379-9.224,20.604-20.604,20.604
	s-20.604-9.224-20.604-20.604c0-16.757-13.632-30.39-30.39-30.39s-30.39,13.633-30.39,30.39v54.163
	c9.229-4.343,19.532-6.774,30.39-6.774c39.479,0,71.598,32.119,71.598,71.598v16.998c0,39.479-32.119,71.598-71.598,71.598
	s-71.598-32.119-71.598-71.598V188.008C184.402,148.529,216.521,116.41,256,116.41z M256,354.382c16.758,0,30.39-13.633,30.39-30.39
	v-16.998c0-16.757-13.632-30.39-30.39-30.39s-30.39,13.633-30.39,30.39v16.998C225.61,340.749,239.242,354.382,256,354.382z"/>
<g>
</g>
<g>
</g>
<g>
</g>
<g>
</g>
<g>
</g>
<g>
</g>
<g>
</g>
<g>
</g>
<g>
</g>
<g>
</g>
<g>
</g>
<g>
</g>
<g>
</g>
<g>
</g>
<g>
</g>
</svg>
