<?xml version="1.0" encoding="iso-8859-1"?>
<!-- Generator: Adobe Illustrator 19.0.0, SVG Export Plug-In . SVG Version: 6.00 Build 0)  -->
<svg version="1.1" id="Capa_1" xmlns="http://www.w3.org/2000/svg" xmlns:xlink="http://www.w3.org/1999/xlink" x="0px" y="0px"
	 viewBox="0 0 512 512" style="enable-background:new 0 0 512 512;" xml:space="preserve">
<path style="fill:#2EA2EF;" d="M481.095,0L256,256l225.095,256h18.414c6.899,0,12.491-5.593,12.491-12.491V12.491
	C512,5.593,506.407,0,499.509,0H481.095z"/>
<path style="fill:#54BBFF;" d="M0,12.491v487.018C0,506.407,5.593,512,12.491,512h468.604V0H12.491C5.593,0,0,5.593,0,12.491z"/>
<polygon style="fill:#C6E8FF;" points="450.189,30.905 256,256 450.189,481.095 481.095,481.095 481.095,30.905 "/>
<rect x="30.905" y="30.905" style="fill:#DEF1FF;" width="419.284" height="450.189"/>
<path style="fill:#2EA2EF;" d="M256,395.59c-39.479,0-71.598-32.119-71.598-71.598c0-11.379,9.224-20.604,20.604-20.604
	c11.379,0,20.604,9.224,20.604,20.604c0,16.757,13.633,30.39,30.39,30.39c16.758,0,30.39-13.633,30.39-30.39v-16.998
	c0-16.757-13.632-30.39-30.39-30.39c-11.379,0-20.604-9.224-20.604-20.604c0-11.379,9.224-20.604,20.604-20.604
	c16.758,0,30.39-13.633,30.39-30.39v-16.998c0-16.757-13.632-30.39-30.39-30.39c-16.757,0-30.39,13.633-30.39,30.39
	c0,11.379-9.224,20.604-20.604,20.604c-11.379,0-20.604-9.224-20.604-20.604c0-39.479,32.119-71.598,71.598-71.598
	s71.598,32.119,71.598,71.598v16.998c0,19.939-8.191,37.999-21.388,50.994c13.197,12.995,21.388,31.055,21.388,50.994v16.998
	C327.598,363.471,295.479,395.59,256,395.59z"/>
<g>
</g>
<g>
</g>
<g>
</g>
<g>
</g>
<g>
</g>
<g>
</g>
<g>
</g>
<g>
</g>
<g>
</g>
<g>
</g>
<g>
</g>
<g>
</g>
<g>
</g>
<g>
</g>
<g>
</g>
</svg>
