<?xml version="1.0" encoding="iso-8859-1"?>
<!-- Generator: Adobe Illustrator 19.0.0, SVG Export Plug-In . SVG Version: 6.00 Build 0)  -->
<svg version="1.1" id="Capa_1" xmlns="http://www.w3.org/2000/svg" xmlns:xlink="http://www.w3.org/1999/xlink" x="0px" y="0px"
	 viewBox="0 0 512 512" style="enable-background:new 0 0 512 512;" xml:space="preserve">
<path style="fill:#2EA2EF;" d="M481.095,0L256,256l225.095,256h18.414c6.899,0,12.491-5.593,12.491-12.491V12.491
	C512,5.593,506.407,0,499.509,0H481.095z"/>
<path style="fill:#54BBFF;" d="M0,12.491v487.018C0,506.407,5.593,512,12.491,512h468.604V0H12.491C5.593,0,0,5.593,0,12.491z"/>
<polygon style="fill:#C6E8FF;" points="450.189,30.905 256,256 450.189,481.095 481.095,481.095 481.095,30.905 "/>
<rect x="30.905" y="30.905" style="fill:#DEF1FF;" width="419.284" height="450.189"/>
<path style="fill:#2EA2EF;" d="M306.994,235.396h-19.747l38.684-90.267c2.728-6.365,2.076-13.677-1.737-19.458
	c-3.813-5.782-10.275-9.261-17.201-9.261H205.006c-11.379,0-20.604,9.224-20.604,20.604s9.224,20.604,20.604,20.604h70.742
	l-33.333,77.779h-37.409c-11.379,0-20.604,9.224-20.604,20.604c0,11.379,9.224,20.604,20.604,20.604h19.75l-38.682,90.261
	c-4.482,10.459,0.363,22.571,10.821,27.054c2.647,1.134,5.398,1.672,8.106,1.671c7.993,0,15.599-4.68,18.947-12.492l45.639-106.494
	h37.407c11.379,0,20.604-9.224,20.604-20.604C327.598,244.621,318.373,235.396,306.994,235.396z"/>
<g>
</g>
<g>
</g>
<g>
</g>
<g>
</g>
<g>
</g>
<g>
</g>
<g>
</g>
<g>
</g>
<g>
</g>
<g>
</g>
<g>
</g>
<g>
</g>
<g>
</g>
<g>
</g>
<g>
</g>
</svg>
