<?xml version="1.0" encoding="iso-8859-1"?>
<!-- Generator: Adobe Illustrator 19.0.0, SVG Export Plug-In . SVG Version: 6.00 Build 0)  -->
<svg version="1.1" id="Capa_1" xmlns="http://www.w3.org/2000/svg" xmlns:xlink="http://www.w3.org/1999/xlink" x="0px" y="0px"
	 viewBox="0 0 512 512" style="enable-background:new 0 0 512 512;" xml:space="preserve">
<path style="fill:#2EA2EF;" d="M481.095,0L256,256l225.095,256h18.414c6.899,0,12.491-5.593,12.491-12.491V12.491
	C512,5.593,506.407,0,499.509,0H481.095z"/>
<path style="fill:#54BBFF;" d="M0,12.491v487.018C0,506.407,5.593,512,12.491,512h468.604V0H12.491C5.593,0,0,5.593,0,12.491z"/>
<polygon style="fill:#C6E8FF;" points="450.189,30.905 256,256 450.189,481.095 481.095,481.095 481.095,30.905 "/>
<rect x="30.905" y="30.905" style="fill:#DEF1FF;" width="419.284" height="450.189"/>
<g>
	<path style="fill:#2EA2EF;" d="M317.811,116.41c-39.479,0-71.598,32.119-71.598,71.598v135.984
		c0,39.479,32.119,71.598,71.598,71.598s71.598-32.119,71.598-71.598V188.008C389.408,148.529,357.289,116.41,317.811,116.41z
		 M348.201,323.992c0,16.757-13.633,30.39-30.39,30.39s-30.39-13.633-30.39-30.39V188.008c0-16.757,13.633-30.39,30.39-30.39
		s30.39,13.633,30.39,30.39V323.992z"/>
	<path style="fill:#2EA2EF;" d="M201.266,117.485c-2.157-0.724-4.369-1.074-6.559-1.074c-6.328,0-12.456,2.923-16.425,8.163
		l-51.508,67.992c-6.871,9.071-5.089,21.993,3.982,28.865c3.722,2.82,8.091,4.183,12.426,4.182c6.229,0,12.387-2.814,16.439-8.163
		l14.48-19.116v176.653c0,11.379,9.224,20.604,20.604,20.604c11.379,0,20.604-9.224,20.604-20.604V137.015
		C215.308,128.166,209.656,120.304,201.266,117.485z"/>
</g>
<g>
</g>
<g>
</g>
<g>
</g>
<g>
</g>
<g>
</g>
<g>
</g>
<g>
</g>
<g>
</g>
<g>
</g>
<g>
</g>
<g>
</g>
<g>
</g>
<g>
</g>
<g>
</g>
<g>
</g>
</svg>
