<?xml version="1.0" encoding="iso-8859-1"?>
<!-- Generator: Adobe Illustrator 19.0.0, SVG Export Plug-In . SVG Version: 6.00 Build 0)  -->
<svg version="1.1" id="Capa_1" xmlns="http://www.w3.org/2000/svg" xmlns:xlink="http://www.w3.org/1999/xlink" x="0px" y="0px"
	 viewBox="0 0 512 512" style="enable-background:new 0 0 512 512;" xml:space="preserve">
<path style="fill:#2EA2EF;" d="M481.095,0L256,256l225.095,256h18.414c6.899,0,12.491-5.593,12.491-12.491V12.491
	C512,5.593,506.407,0,499.509,0H481.095z"/>
<path style="fill:#54BBFF;" d="M0,12.491v487.018C0,506.407,5.593,512,12.491,512h468.604V0H12.491C5.593,0,0,5.593,0,12.491z"/>
<polygon style="fill:#C6E8FF;" points="450.189,30.905 256,256 450.189,481.095 481.095,481.095 481.095,30.905 "/>
<rect x="30.905" y="30.905" style="fill:#DEF1FF;" width="419.284" height="450.189"/>
<path style="fill:#2EA2EF;" d="M310.6,295.204V137.014c0-9.63-6.67-17.975-16.064-20.097c-1.517-0.343-3.041-0.509-4.546-0.509
	c-7.809,0-15.125,4.459-18.597,11.747l-84.99,178.479c-3.039,6.383-2.594,13.88,1.181,19.858s10.351,9.603,17.421,9.603h64.386
	v38.89c0,11.379,9.224,20.604,20.604,20.604s20.604-9.224,20.604-20.604v-39.204c9.66-1.705,16.998-10.14,16.998-20.289
	C327.597,305.344,320.26,296.908,310.6,295.204z M269.392,294.889h-31.754l31.754-66.685V294.889z"/>
<g>
</g>
<g>
</g>
<g>
</g>
<g>
</g>
<g>
</g>
<g>
</g>
<g>
</g>
<g>
</g>
<g>
</g>
<g>
</g>
<g>
</g>
<g>
</g>
<g>
</g>
<g>
</g>
<g>
</g>
</svg>
